<svg xmlns="http://www.w3.org/2000/svg" width="16" height="16" viewBox="0 0 16 16"><path fill="#ef4444" d="M14.38 6.88Q14.38 6.88 14.38 6.84Q13.98 6.56 13.31 6.56Q13.06 6.56 12.77 6.62Q12.70 6.05 12.27 5.59Q12.05 5.38 11.84 5.25L11.66 5.12L11.55 5.31Q11.27 5.67 11.20 6.08Q11.02 6.88 11.42 7.52Q11.20 7.64 10.88 7.69Q10.62 7.75 10.47 7.75L1.89 7.75Q1.70 7.75 1.60 7.88Q1.50 8.00 1.50 8.16Q1.50 9.34 1.86 10.34Q2.28 11.50 3.17 12.06Q4.14 12.67 6.05 12.67Q6.84 12.67 7.64 12.52Q8.73 12.33 9.70 11.78Q10.50 11.30 11.11 10.59Q11.91 9.70 12.48 8.22L12.61 8.22Q13.53 8.22 14.08 7.67Q14.33 7.45 14.47 7.11L14.50 6.97ZM2.69 7.52L3.84 7.52Q3.94 7.52 3.94 7.39L3.94 6.38Q3.94 6.25 3.84 6.27L2.69 6.27Q2.59 6.27 2.59 6.38L2.59 7.39Q2.59 7.52 2.69 7.52ZM4.28 7.52L5.44 7.52Q5.53 7.52 5.53 7.39L5.53 6.38Q5.53 6.25 5.44 6.27L4.28 6.27Q4.19 6.27 4.19 6.38L4.19 7.39Q4.19 7.52 4.28 7.52ZM5.89 7.52Q5.91 7.52 7.03 7.52Q7.16 7.52 7.14 7.39L7.14 6.38Q7.16 6.25 7.03 6.27L5.89 6.27Q5.77 6.27 5.77 6.38L5.77 7.39Q5.77 7.52 5.89 7.52ZM7.48 7.52L8.61 7.52Q8.73 7.52 8.73 7.39L8.73 6.38Q8.73 6.25 8.61 6.27L7.48 6.27Q7.39 6.27 7.39 6.38L7.39 7.39Q7.39 7.52 7.48 7.52ZM4.28 6.05L5.44 6.05Q5.47 6.05 5.50 6.02Q5.53 5.98 5.53 5.92L5.53 4.92Q5.53 4.80 5.44 4.80L4.28 4.80Q4.19 4.80 4.19 4.92L4.19 5.92Q4.19 6.05 4.28 6.05ZM5.89 6.05Q5.91 6.05 7.03 6.05Q7.16 6.05 7.14 5.92L7.14 4.92Q7.16 4.80 7.03 4.80L5.89 4.80Q5.77 4.80 5.77 4.92L5.77 5.92Q5.77 6.05 5.89 6.05ZM7.48 6.05L8.61 6.05Q8.73 6.05 8.73 5.92L8.73 4.92Q8.73 4.80 8.61 4.80L7.48 4.80Q7.39 4.80 7.39 4.92L7.39 5.92Q7.39 6.05 7.48 6.05ZM7.48 4.55L8.61 4.55Q8.73 4.55 8.73 4.45L8.73 3.45Q8.73 3.33 8.61 3.33L7.48 3.33Q7.39 3.33 7.39 3.45L7.39 4.45Q7.39 4.55 7.48 4.55ZM9.06 7.52L10.23 7.52Q10.33 7.52 10.31 7.39L10.31 6.38Q10.31 6.25 10.23 6.27L9.06 6.27Q8.97 6.27 8.97 6.38L8.97 7.39Q8.97 7.52 9.06 7.52Z"/></svg>
