<svg xmlns="http://www.w3.org/2000/svg" width="16" height="16" viewBox="0 0 16 16"><path fill="#ec4899" d="M8.64 6.05L12.23 6.05L8.64 2.47ZM4.09 1.50L9.31 1.50L13.22 5.41L13.22 13.22Q13.22 13.73 12.84 14.12Q12.45 14.50 11.91 14.50L4.09 14.50Q3.55 14.50 3.16 14.12Q2.78 13.73 2.78 13.22L2.78 2.78Q2.78 2.27 3.16 1.88Q3.55 1.50 4.09 1.50ZM4.09 13.22L9.95 13.22L11.91 13.22L11.91 8.00L9.31 10.59L8.00 9.31ZM5.41 6.05Q4.86 6.05 4.48 6.43Q4.09 6.81 4.09 7.34Q4.09 7.88 4.48 8.26Q4.86 8.64 5.39 8.64Q5.92 8.64 6.30 8.26Q6.69 7.88 6.69 7.34Q6.69 6.81 6.30 6.43Q5.92 6.05 5.41 6.05Z"/></svg>
