<svg xmlns="http://www.w3.org/2000/svg" width="16" height="16" viewBox="0 0 16 16"><path fill="#eab308" d="M6.14 6.46Q6.14 5.68 6.69 5.15Q7.24 4.62 8.00 4.62Q8.76 4.62 9.31 5.15Q9.86 5.68 9.86 6.46Q9.86 7.23 9.31 7.76Q8.76 8.30 8.00 8.30Q7.24 8.30 6.69 7.76Q6.14 7.23 6.14 6.46ZM8.00 12.01L10.46 12.66L10.46 10.73Q9.34 11.44 8.00 11.44Q6.66 11.44 5.54 10.73L5.54 12.66ZM8.00 2.75Q7.27 2.75 6.58 3.01Q5.88 3.28 5.36 3.80Q4.84 4.32 4.56 5.02Q4.29 5.71 4.29 6.46Q4.29 7.20 4.56 7.88Q4.84 8.56 5.36 9.08Q5.88 9.60 6.56 9.90Q7.24 10.20 8.00 10.20Q8.76 10.20 9.44 9.90Q10.12 9.60 10.64 9.08Q11.16 8.56 11.44 7.88Q11.71 7.20 11.71 6.46Q11.71 5.71 11.44 5.02Q11.16 4.32 10.64 3.80Q10.12 3.28 9.42 3.01Q8.73 2.75 8.00 2.75ZM12.96 6.46Q12.93 7.35 12.61 8.19Q12.29 9.04 11.71 9.72L11.71 14.50L8.00 13.25L4.29 14.50L4.29 9.72Q3.68 9.07 3.36 8.21Q3.04 7.35 3.04 6.46Q3.04 5.48 3.42 4.57Q3.80 3.67 4.50 2.95Q5.20 2.24 6.11 1.87Q7.02 1.50 8.00 1.50Q8.98 1.50 9.89 1.87Q10.80 2.24 11.50 2.95Q12.20 3.67 12.58 4.57Q12.96 5.48 12.96 6.46Z"/></svg>
