<svg xmlns="http://www.w3.org/2000/svg" width="16" height="16" viewBox="0 0 16 16"><path fill="#c084fc" d="M8.00 1.50Q6.44 1.50 5.11 1.89Q3.77 2.28 2.99 2.94Q2.21 3.60 2.21 4.39Q2.21 5.19 2.99 5.85Q3.77 6.51 5.11 6.90Q6.44 7.29 8.00 7.29Q9.56 7.29 10.89 6.90Q12.23 6.51 13.01 5.85Q13.79 5.19 13.79 4.39Q13.79 3.60 13.01 2.94Q12.23 2.28 10.89 1.89Q9.56 1.50 8.00 1.50ZM2.21 5.83L2.21 8.00Q2.21 8.78 2.99 9.44Q3.77 10.10 5.11 10.49Q6.44 10.88 8.00 10.88Q9.56 10.88 10.89 10.49Q12.23 10.10 13.01 9.44Q13.79 8.78 13.79 8.00L13.79 5.83Q13.79 6.61 13.01 7.27Q12.23 7.93 10.89 8.32Q9.56 8.71 8.00 8.71Q6.44 8.71 5.11 8.32Q3.77 7.93 2.99 7.27Q2.21 6.61 2.21 5.83ZM2.21 9.46L2.21 11.62Q2.21 12.40 2.99 13.06Q3.77 13.72 5.11 14.11Q6.44 14.50 8.00 14.50Q9.56 14.50 10.89 14.11Q12.23 13.72 13.01 13.06Q13.79 12.40 13.79 11.62L13.79 9.46Q13.79 10.24 13.01 10.89Q12.23 11.55 10.89 11.94Q9.56 12.33 8.00 12.33Q6.44 12.33 5.11 11.94Q3.77 11.55 2.99 10.89Q2.21 10.24 2.21 9.46Z"/></svg>
